<svg xmlns="http://www.w3.org/2000/svg" width="160" height="39" fill="none" viewBox="0 0 160 39"><path fill="#f2f2f2" d="m22.378 4.753-.07-.018-1.9-.55-.158-.573h-8.103v1.14zM30.527 2.552l-4.21 1.186-.474 1.015h6.075zM18.368.758h-4.772L12.216 1.9h7.398zM32.114 7.606l.356-1.972-.196-.31h-9.966v1.142H12.147v.758l-.334.382zM35.663 10.46l-1.491-1.604-1.43-.678H22.31V9.32H10.321L9.33 10.46zM37.725 13.317l.092-.533-1.625-1.752H22.308v1.14H7.842l-.992 1.145zM41.93 16.17l-4.358-1.975.053-.31H22.308v1.142H5.42l-.598 1.144zM43.191 16.74H22.308v1.14H3.925l-.598 1.144h41.29V17.39zM22.309 20.737H2.433l-.598 1.141h40.772l1.787-2.285H22.308zM22.309 23.59H1.51l-.195 1.142h35.72l4.102-.973 1.027-1.312H22.308zM22.309 26.445H1.022l-.191 1.14h30.223l3.197-2.197.372-.088H22.308zM28.296 30.439l-.196-.821 2.128-1.46h-7.92v1.14H.54l-.191 1.14zM28.974 33.293l-.544-2.282h-6.122v1.14H.058L0 32.493l.931.8zM29.733 36.146l-.257-.744-.368-1.537h-6.8v1.14H2.921l1.322 1.141zM30.718 39l-.79-2.282h-7.62v1.141H6.233l.245.21 8.475.93zM77.712 20.334H65.595v-7.371h-8.08v25.791h20.197V35.07h4.04V24.016h-4.04V20.33zm-4.04 14.738h-8.08V24.02h8.08zM89.759 24.02h-4.04v11.052h4.04v3.686h20.196V20.334H89.759zm4.04 0h8.08v11.052h-8.08zM126.165 24.02h-4.036v-3.686h-8.08v18.424h8.08v-7.371h4.036V27.7h4.041V24.02h4.04v-3.685h-8.081zM160 31.387v-7.368h-4.04v-3.685h-16.156v3.685h-4.041v11.053h4.041v3.686H160v-3.686h-16.156v-3.685zm-16.156-7.368h8.08v3.686h-8.08z"/></svg>